<svg id="Layer_1" data-name="Layer 1" xmlns="http://www.w3.org/2000/svg" xmlns:xlink="http://www.w3.org/1999/xlink" viewBox="0 0 389.84 73.67"><defs><style>.cls-1,.cls-4{fill:#2f9cd7;}.cls-1{stroke:#2f9cd7;stroke-miterlimit:10;}.cls-2{fill:none;stroke:#fff;stroke-miterlimit:1;stroke-width:4px;}.cls-3{fill:#fff;}.cls-5{fill:url(#linear-gradient);}.cls-6{fill:url(#linear-gradient-2);}.cls-7{fill:url(#linear-gradient-3);}</style><linearGradient id="linear-gradient" x1="425.26" y1="165.82" x2="425.26" y2="134.27" gradientUnits="userSpaceOnUse"><stop offset="0" stop-color="#2559a9"/><stop offset="1" stop-color="#0aa8e0"/></linearGradient><linearGradient id="linear-gradient-2" x1="452.94" y1="165.82" x2="452.94" y2="133.65" xlink:href="#linear-gradient"/><linearGradient id="linear-gradient-3" x1="482.38" y1="165.82" x2="482.38" y2="134.27" xlink:href="#linear-gradient"/></defs><title>ein-360-logo-full-on-black-gradient</title><path class="cls-1" d="M478.94,144" transform="translate(-104.08 -113.17)"/><path class="cls-1" d="M487.94,128" transform="translate(-104.08 -113.17)"/><path class="cls-2" d="M135.1,115.56l-27.54,15.9a3,3,0,0,0-1.47,2.55v32a3,3,0,0,0,.22,1.13,3.12,3.12,0,0,0,.17.34,3,3,0,0,0,1.08,1.08l27.54,15.9a2.94,2.94,0,0,0,2.95,0l17.46-10.08,10.08-5.82a2.89,2.89,0,0,0,.58-.44l0,0a3,3,0,0,0,.86-2.08V134a3,3,0,0,0-1.47-2.55L138,115.56a3,3,0,0,0-2.95,0" transform="translate(-104.08 -113.17)"/><path class="cls-3" d="M137,139.45a1.5,1.5,0,0,0-1.52,0l-21.84,13a1.5,1.5,0,0,0-.71,1.56l1.47,8a1.5,1.5,0,0,0,2.22,1l20.23-11.53a1.5,1.5,0,0,0,.76-1.28l.14-9.53A1.5,1.5,0,0,0,137,139.45Z" transform="translate(-104.08 -113.17)"/><path class="cls-3" d="M160.18,155.19a1.59,1.59,0,0,0-1.52,0L137,166.65a1.52,1.52,0,0,0-.79,1.09l-1.26,8.06a1.5,1.5,0,0,0,2.22,1.53l23-13.13a1.59,1.59,0,0,0,.84-1.3v-6.42A1.59,1.59,0,0,0,160.18,155.19Z" transform="translate(-104.08 -113.17)"/><path class="cls-4" d="M137.22,166.67l-22.45-14.13a1.09,1.09,0,0,0-1.21,0,1.23,1.23,0,0,0-.56,1.15v9.46a1.2,1.2,0,0,0,.49,1.14l22.29,13.17a1.14,1.14,0,0,0,.61.18,1.89,1.89,0,0,0,.8-.18,1.48,1.48,0,0,0,.81-1.14v-8.51A1.51,1.51,0,0,0,137.22,166.67Z" transform="translate(-104.08 -113.17)"/><path class="cls-3" d="M137,122.45a1.5,1.5,0,0,0-1.52,0l-21.84,13a1.5,1.5,0,0,0-.71,1.56l1.47,8a1.5,1.5,0,0,0,2.22,1l20.23-11.53a1.5,1.5,0,0,0,.76-1.28l.14-9.53A1.5,1.5,0,0,0,137,122.45Z" transform="translate(-104.08 -113.17)"/><path class="cls-3" d="M160.18,138.19a1.59,1.59,0,0,0-1.52,0L137,149.65a1.52,1.52,0,0,0-.79,1.09l-1.26,8.06a1.5,1.5,0,0,0,2.22,1.53l23-13.13a1.59,1.59,0,0,0,.84-1.3v-6.42A1.59,1.59,0,0,0,160.18,138.19Z" transform="translate(-104.08 -113.17)"/><path class="cls-4" d="M137.22,149.67l-22.45-14.13a1.09,1.09,0,0,0-1.21,0,1.23,1.23,0,0,0-.56,1.15v9.46a1.2,1.2,0,0,0,.49,1.14l22.29,13.17a1.14,1.14,0,0,0,.61.18,1.89,1.89,0,0,0,.8-.18,1.48,1.48,0,0,0,.81-1.14v-8.51A1.51,1.51,0,0,0,137.22,149.67Z" transform="translate(-104.08 -113.17)"/><path class="cls-3" d="M199.1,134.4a.6.6,0,0,1,.59-.59h18.07a.6.6,0,0,1,.59.59v.77a.6.6,0,0,1-.59.59h-16.5v12.44h14.29a.6.6,0,0,1,.59.59v.77a.6.6,0,0,1-.59.59H201.27v13.34h16.5a.6.6,0,0,1,.59.59v.72a.6.6,0,0,1-.59.59H199.69a.6.6,0,0,1-.59-.59Z" transform="translate(-104.08 -113.17)"/><path class="cls-3" d="M229.44,134.4a.6.6,0,0,1,.59-.59h1a.6.6,0,0,1,.59.59v30.38a.61.61,0,0,1-.63.59H230a.6.6,0,0,1-.59-.59Z" transform="translate(-104.08 -113.17)"/><path class="cls-3" d="M244.54,134a.62.62,0,0,1,.68-.59H246l21.64,28.17h0V134.4a.6.6,0,0,1,.59-.59h.9a.6.6,0,0,1,.59.59v30.83c0,.41-.36.59-.72.59h-.59s-.41-.14-21.82-28.44h0v27.41a.6.6,0,0,1-.59.59h-.86a.6.6,0,0,1-.59-.59Z" transform="translate(-104.08 -113.17)"/><path class="cls-3" d="M280.79,161.18l.41-.54c.32-.36.63-.5,1-.18a13.11,13.11,0,0,0,8.34,3.47c4.1,0,7.57-2.75,7.57-6,0-4-3.29-5.81-8.74-7.66-5.23-1.85-8.7-3.7-8.7-8.88,0-3.38,2.7-8,9.74-8a14.8,14.8,0,0,1,7.75,2.3.65.65,0,0,1,.18.95,4.09,4.09,0,0,0-.36.59.65.65,0,0,1-1,.23,13.22,13.22,0,0,0-6.63-2.12c-5.54,0-7.62,3.43-7.62,6,0,3.83,2.93,5.5,7.48,7,6.17,2.12,10.1,4.28,10.1,9.51,0,4.51-4.64,8-9.83,8a14.69,14.69,0,0,1-9.56-3.7C280.65,161.9,280.43,161.67,280.79,161.18Z" transform="translate(-104.08 -113.17)"/><path class="cls-3" d="M315.32,135.75h-8.61c-.45,0-.59-.27-.59-.68v-.68a.57.57,0,0,1,.59-.59h19.38a.57.57,0,0,1,.59.59v.77a.57.57,0,0,1-.59.59h-8.65v29c0,.32-.27.59-.72.59h-.81a.6.6,0,0,1-.59-.59Z" transform="translate(-104.08 -113.17)"/><path class="cls-3" d="M335.2,134.4a.6.6,0,0,1,.59-.59h18.07a.6.6,0,0,1,.59.59v.77a.6.6,0,0,1-.59.59h-16.5v12.44h14.29a.6.6,0,0,1,.59.59v.77a.6.6,0,0,1-.59.59H337.36v13.34h16.5a.6.6,0,0,1,.59.59v.72a.6.6,0,0,1-.59.59H335.78a.6.6,0,0,1-.59-.59Z" transform="translate(-104.08 -113.17)"/><path class="cls-3" d="M365.54,134.4a.6.6,0,0,1,.59-.59h1a.6.6,0,0,1,.59.59v30.38a.61.61,0,0,1-.63.59h-.95a.6.6,0,0,1-.59-.59Z" transform="translate(-104.08 -113.17)"/><path class="cls-3" d="M380.64,134a.62.62,0,0,1,.68-.59h.77l21.64,28.17h0V134.4a.6.6,0,0,1,.59-.59h.9a.6.6,0,0,1,.59.59v30.83c0,.41-.36.59-.72.59h-.59s-.41-.14-21.82-28.44h0v27.41a.6.6,0,0,1-.59.59h-.86a.6.6,0,0,1-.59-.59Z" transform="translate(-104.08 -113.17)"/><path class="cls-5" d="M415.39,160.68l2.84-2.84a.84.84,0,0,1,1.13-.09s2.79,2.07,5,2.07a3.93,3.93,0,0,0,3.92-3.61c0-2-2-3.65-5.36-3.65h-2.52a.89.89,0,0,1-.86-.86V148a.86.86,0,0,1,.86-.86h2.52c3.16,0,4.82-1.53,4.82-3.47a3.49,3.49,0,0,0-3.61-3.38,5.13,5.13,0,0,0-3.92,1.8.86.86,0,0,1-1.22,0l-2.75-2.7a.8.8,0,0,1,0-1.17s3.7-4,8.61-4c5.23,0,9.74,3.2,9.74,8.25a8.13,8.13,0,0,1-4.64,7v.13c2.12.9,5.45,3.7,5.45,7.57,0,4.91-4.28,8.61-10.5,8.61-5.68,0-8.56-2.79-9.51-4A.89.89,0,0,1,415.39,160.68Z" transform="translate(-104.08 -113.17)"/><path class="cls-6" d="M457.5,133.73a1,1,0,0,1,1.4.72l1.31,3.47c.18.54,0,1-.86,1.31-2.12.68-8.11,2.75-9.06,7.39a13,13,0,0,1,4.28-.9c4.24,0,9,3.11,9,9.78a10.38,10.38,0,0,1-10.32,10.32c-7,0-10.86-5.23-10.86-12.26C442.35,140.31,453.62,134.94,457.5,133.73Zm-4.37,25.87a4.35,4.35,0,1,0-4.33-4.33A4.36,4.36,0,0,0,453.12,159.6Z" transform="translate(-104.08 -113.17)"/><path class="cls-7" d="M470.84,150c0-9.87,4.19-15.78,11.54-15.78s11.54,5.91,11.54,15.78-4.19,15.78-11.54,15.78S470.84,159.91,470.84,150Zm15.82,0c0-5.91-1.53-9.24-4.28-9.24s-4.28,3.33-4.28,9.24,1.53,9.24,4.28,9.24S486.66,156,486.66,150Z" transform="translate(-104.08 -113.17)"/></svg>